<svg id="visual" viewBox="0 0 1920 1080" width="1920" height="1080" xmlns="http://www.w3.org/2000/svg" xmlns:xlink="http://www.w3.org/1999/xlink" version="1.1"><rect x="0" y="0" width="1920" height="1080" fill="#e2e8f0"></rect><defs><linearGradient id="grad1_0" x1="43.8%" y1="100%" x2="100%" y2="0%"><stop offset="14.444444444444446%" stop-color="#e2e8f0" stop-opacity="1"></stop><stop offset="85.55555555555554%" stop-color="#e2e8f0" stop-opacity="1"></stop></linearGradient></defs><defs><linearGradient id="grad2_0" x1="0%" y1="100%" x2="56.3%" y2="0%"><stop offset="14.444444444444446%" stop-color="#e2e8f0" stop-opacity="1"></stop><stop offset="85.55555555555554%" stop-color="#e2e8f0" stop-opacity="1"></stop></linearGradient></defs><g transform="translate(1920, 1080)"><path d="M-756 0C-726 -50.1 -696 -100.2 -688.3 -157.1C-680.6 -214 -695.2 -277.7 -675.7 -325.4C-656.2 -373.1 -602.6 -404.9 -566.8 -452C-531.1 -499.2 -513.2 -561.8 -469.5 -588.7C-425.8 -615.6 -356.2 -606.9 -303.7 -630.7C-251.3 -654.5 -216 -710.7 -168.2 -737C-120.5 -763.4 -60.2 -759.7 0 -756L0 0Z" fill="#d6dbe1"></path></g><g transform="translate(0, 0)"><path d="M756 0C723.2 50.1 690.3 100.2 682.4 155.8C674.6 211.3 691.7 272.3 681.1 328C670.5 383.7 632.2 434.1 584 465.7C535.9 497.4 477.9 510.4 435.8 546.5C393.8 582.6 367.6 641.7 324.5 673.9C281.4 706.1 221.4 711.3 164.4 720.5C107.5 729.7 53.8 742.8 0 756L0 0Z" fill="#d6dbe1"></path></g></svg>